<svg xmlns="http://www.w3.org/2000/svg" width="22" height="19">
  <path fill="#FFF" fill-rule="evenodd" d="M20.845 0H7.693c-.242 0-.438.187-.438.417v4.166c0 .23.196.417.438.417h13.152c.24 0 .44-.187.44-.417V.417c0-.23-.2-.417-.44-.417m0 7H7.693c-.242 0-.438.187-.438.417v4.166c0 .23.196.417.438.417h13.152c.24 0 .44-.187.44-.417V7.417c0-.23-.2-.417-.44-.417m0 7H7.693c-.242 0-.438.187-.438.417v4.166c0 .23.196.417.438.417h13.152c.24 0 .44-.187.44-.417v-4.166c0-.23-.2-.417-.44-.417M4.833 0H.658C.428 0 .24.187.24.417v4.166c0 .23.187.417.418.417h4.175c.23 0 .417-.187.417-.417V.417C5.25.187 5.063 0 4.833 0m0 7H.658c-.23 0-.418.187-.418.417v4.166c0 .23.187.417.418.417h4.175c.23 0 .417-.187.417-.417V7.417c0-.23-.187-.417-.417-.417m0 7H.658c-.23 0-.418.187-.418.417v4.166c0 .23.187.417.418.417h4.175c.23 0 .417-.187.417-.417v-4.166c0-.23-.187-.417-.417-.417"/>
</svg>
