<svg xmlns="http://www.w3.org/2000/svg" width="18" height="22">
  <path fill="#FFF" fill-rule="evenodd" d="M15.425 4.083c0 .697-.568 1.36-1.266 1.36H3.08c-.698 0-1.265-.663-1.265-1.36V3.08c0-.697.567-1.265 1.265-1.265h11.08c.697 0 1.265.568 1.265 1.265v1.003zM14.518 0H2.722C1.222 0 0 1.22 0 2.72v4.54h17.24V2.72c0-1.5-1.222-2.72-2.722-2.72zm-8.62 11.796h-1.36v1.36h-.91v-1.36H2.27v-.908h1.36v-1.36h.91v1.36h1.36v.908zm2.268-3.63H0v5.444h8.166V8.166zm2.722 9.98h3.63v.908h-3.63v-.907zm0-1.814h3.63v.907h-3.63v-.908zm-4.92 2.722l-.322.32-1.105-1.116-1.114 1.117-.64-.642 1.116-1.12-1.12-1.13.645-.638 1.117 1.127 1.104-1.102.32.32.322.32-1.107 1.107 1.108 1.118-.322.32zm3.105 2.268h-.907v-6.805H0v4.537c0 1.502 1.22 2.722 2.722 2.722h11.795c1.5 0 2.722-1.22 2.722-2.722v-4.537H9.072v6.805zm1.815-10.434h3.63v.907h-3.63v-.907zM9.073 13.61h8.166V8.166H9.072v5.444z"/>
</svg>
